<svg width="869" height="340" xmlns="http://www.w3.org/2000/svg" xmlns:xlink="http://www.w3.org/1999/xlink" overflow="hidden"><g><rect x="0" y="0" width="869" height="339.964" fill="#F0F0F0"/><path d="M185 84.991 750 84.991 835 169.982 750 254.973 185 254.973Z" stroke="#0298DC" stroke-width="7.99693" stroke-linecap="square" stroke-miterlimit="8" fill="#EAEAEA" fill-rule="evenodd"/><text fill="#C22051" font-family="Times New Roman,Times New Roman_MSFontService,sans-serif" font-weight="700" font-size="48" transform="matrix(1 0 0 0.999893 383.735 160)">ANGEL</text><text fill="#C22051" font-family="Times New Roman,Times New Roman_MSFontService,sans-serif" font-weight="700" font-size="48" transform="matrix(1 0 0 0.999893 554.336 160)">-</text><text fill="#C22051" font-family="Times New Roman,Times New Roman_MSFontService,sans-serif" font-weight="700" font-size="48" transform="matrix(1 0 0 0.999893 570.33 160)">GL</text><text fill="#C22051" font-family="Times New Roman,Times New Roman_MSFontService,sans-serif" font-weight="700" font-size="48" transform="matrix(1 0 0 0.999893 639.637 160)">-</text><text fill="#C22051" font-family="Times New Roman,Times New Roman_MSFontService,sans-serif" font-weight="700" font-size="48" transform="matrix(1 0 0 0.999893 655.631 160)">GL</text><text fill="#C22051" font-family="Times New Roman,Times New Roman_MSFontService,sans-serif" font-weight="700" font-size="19" transform="matrix(1 0 0 0.999893 436.402 221)">Computer Systems Engineer</text><text fill="#C22051" font-family="Times New Roman,Times New Roman_MSFontService,sans-serif" font-weight="700" font-size="19" transform="matrix(1 0 0 0.999893 403.328 243)">Cybersecurity | Project Management</text><path d="M77.963 63.1512 184.823 103.474 291.683 63.1512 251.356 170 291.683 276.849 184.823 236.526 77.963 276.849 118.29 170Z" stroke="#0298DC" stroke-width="7.99651" stroke-miterlimit="8" fill="#C22051" fill-rule="evenodd"/><path d="M34 169.982 137.992 122.979 185 18.9979 232.008 122.979 336 169.982 232.008 216.985 185 320.966 137.992 216.985Z" stroke="#C22051" stroke-width="7.99693" stroke-miterlimit="8" fill="#0298DC" fill-rule="evenodd"/></g></svg>