<svg width="1058" height="340" xmlns="http://www.w3.org/2000/svg" xmlns:xlink="http://www.w3.org/1999/xlink" overflow="hidden"><g><rect x="0" y="0" width="1058" height="339.94" fill="#353365"/><path d="M231 207.964 853 207.964 894 248.957 853 289.949 231 289.949Z" stroke="#353365" stroke-width="7.99748" stroke-miterlimit="8" fill="#C22051" fill-rule="evenodd"/><path d="M226 65.9884 887.5 65.9884 982 160.472 887.5 254.956 226 254.956Z" stroke="#353365" stroke-width="7.99748" stroke-miterlimit="8" fill="#C22051" fill-rule="evenodd"/><path d="M84 160.472 181.794 116.429 226 18.9967 270.206 116.429 368 160.472 270.206 204.515 226 301.947 181.794 204.515Z" stroke="#353365" stroke-width="7.99748" stroke-miterlimit="8" fill="#C22051" fill-rule="evenodd"/><text fill="#FFFFFF" font-family="Times New Roman,Times New Roman_MSFontService,sans-serif" font-weight="400" font-size="53" transform="matrix(1 0 0 0.999825 429.774 119)">Angel Emmanuel</text><text fill="#FFFFFF" font-family="Times New Roman,Times New Roman_MSFontService,sans-serif" font-weight="400" font-size="53" transform="matrix(1 0 0 0.999825 449.021 183)">García Zacarías</text><text fill="#FFFFFF" font-family="Times New Roman,Times New Roman_MSFontService,sans-serif" font-weight="400" font-size="23" transform="matrix(1 0 0 0.999825 483.173 213)">Computer Systems Engineer</text><text fill="#FFFFFF" font-family="Times New Roman,Times New Roman_MSFontService,sans-serif" font-weight="400" font-size="23" transform="matrix(1 0 0 0.999825 446.351 241)">Cybersecurity | Project Management</text></g></svg>