<svg width="1058" height="756" xmlns="http://www.w3.org/2000/svg" xmlns:xlink="http://www.w3.org/1999/xlink" overflow="hidden"><defs><clipPath id="clip0"><rect x="0" y="0" width="1058" height="756"/></clipPath></defs><g clip-path="url(#clip0)"><rect x="0" y="0" width="1058" height="756.405" fill="#353365"/><path d="M218 264.141 860.501 264.141 974 377.703 860.501 491.263 218 491.263Z" stroke="#353365" stroke-width="7.99748" stroke-miterlimit="8" fill="#C22051" fill-rule="evenodd"/><path d="M84 378.202 188.336 331.169 235.5 227.122 282.663 331.169 387 378.202 282.663 425.236 235.5 529.283 188.336 425.236Z" stroke="#353365" stroke-width="7.99748" stroke-miterlimit="8" fill="#C22051" fill-rule="evenodd"/><text fill="#FFFFFF" font-family="Times New Roman,Times New Roman_MSFontService,sans-serif" font-weight="400" font-size="47" transform="matrix(1 0 0 1.00054 454.54 316)">Angel Emmanuel</text><text fill="#FFFFFF" font-family="Times New Roman,Times New Roman_MSFontService,sans-serif" font-weight="400" font-size="47" transform="matrix(1 0 0 1.00054 471.535 373)">García Zacarías</text><text fill="#FFFFFF" font-family="Times New Roman,Times New Roman_MSFontService,sans-serif" font-weight="400" font-size="23" transform="matrix(1 0 0 1.00054 485.447 426)">Computer</text><text fill="#FFFFFF" font-family="Times New Roman,Times New Roman_MSFontService,sans-serif" font-weight="400" font-size="23" transform="matrix(1 0 0 1.00054 584.916 426)">Systems</text><text fill="#FFFFFF" font-family="Times New Roman,Times New Roman_MSFontService,sans-serif" font-weight="400" font-size="23" transform="matrix(1 0 0 1.00054 668.889 426)">Engineer</text><text fill="#FFFFFF" font-family="Times New Roman,Times New Roman_MSFontService,sans-serif" font-weight="400" font-size="23" transform="matrix(1 0 0 1.00054 448.626 454)">Cybersecurity</text><text fill="#FFFFFF" font-family="Times New Roman,Times New Roman_MSFontService,sans-serif" font-weight="400" font-size="23" transform="matrix(1 0 0 1.00054 585.582 454)">| Project Management</text></g></svg>